# xmcd CD database file
#
# Track frame offsets:
#	150
#	26310
#	57438
#	78813
#	103338
#	140988
#	165438
#	185219
#	205000
#	230801
#	235825
#
# Disc length: 3482 seconds
#
# Revision: 0
# Processed by: cddbd v1.5.2PL0 Copyright (c) Steve Scherf et al.
# Submitted via: CDex 1.70beta2
#
DISCID=970d980b
DTITLE=Matus Jakabcic Tentet - Featuring Special Guest Greg Hopkins
DYEAR=1900
DGENRE=Jazz
TTITLE0=Contra - Part 1
TTITLE1=Contra - Part 2
TTITLE2=269 Sumner St.
TTITLE3=Snow Day
TTITLE4=Bas Relief
TTITLE5=Modal 2
TTITLE6=Last Piece - Drummer's Turn
TTITLE7=Last Piece - Desert Blues
TTITLE8=Last Piece - Who Was This King Called Duke
TTITLE9=Last Piece - Drummer's Turn (Reprise)
TTITLE10=269 Sunmer St. (Alternate Take)
EXTD=
EXTT0=
EXTT1=
EXTT2=
EXTT3=
EXTT4=
EXTT5=
EXTT6=
EXTT7=
EXTT8=
EXTT9=
EXTT10=
PLAYORDER=
